<svg xmlns="http://www.w3.org/2000/svg" version="1.1" xmlns:xlink="http://www.w3.org/1999/xlink" width="1000" height="1000"><g clip-path="url(#SvgjsClipPath1443)"><rect width="1000" height="1000" fill="#ffffff"></rect><g transform="matrix(3.4615384615384617,0,0,3.4615384615384617,50,50)"><svg xmlns="http://www.w3.org/2000/svg" version="1.1" xmlns:xlink="http://www.w3.org/1999/xlink" width="260" height="260"><svg version="1.1" id="Capa_1" xmlns="http://www.w3.org/2000/svg" xmlns:xlink="http://www.w3.org/1999/xlink" x="0px" y="0px" viewBox="0 0 260 260" style="enable-background:new 0 0 260 260;" xml:space="preserve">
<style type="text/css">
	.st0{fill-rule:evenodd;clip-rule:evenodd;}
	.st1{fill:none;stroke:#000000;stroke-width:3;stroke-miterlimit:10;}
</style>
<g>
	<path d="M155.95,209.05l5.55,13.47l-1.58-13.47H155.95z M90.18,7.37l15.06,25.75L119.9,7.37l3.17,1.58l-14.66,25.75
		c5.55,0.79,10.3,3.57,14.26,7.53c3.96,3.96,6.74,9.11,7.92,14.66h87.96c2.38,0,5.15,1.19,6.74,2.77l0,0
		c1.58,1.98,2.77,4.36,2.77,6.74v110.55c0,2.77-1.19,5.15-2.77,6.74l0,0c-1.58,1.58-4.36,2.77-6.74,2.77h-12.28v14.66v3.96h-3.96
		h-7.53l5.55,40.42l0.79,4.36l-4.75,0.79l-3.57,0.4l-3.17,0.4l-1.58-3.17l-17.83-43.19h-1.98l5.55,39.23l0.4,4.36l-4.36,0.79h-2.38
		l-3.17,0.4l-1.58-2.77l-17.83-40.81l-0.4-1.19h-28.92l-0.4,1.19L98.1,247.09l-1.58,3.17l-3.17-0.4l-3.17-0.4l-4.36-0.79l0.4-4.36
		l5.55-39.23h-1.58l0,0l-18.62,44.38l-1.19,3.17l-3.57-0.4l-3.57-0.4l-4.36-0.4l0.79-4.75l5.55-41.6h-7.92h-3.57v-3.96v-14.66H41.44
		c-2.77,0-5.15-1.19-6.74-2.77l0,0c-1.98-1.58-2.77-3.96-2.77-6.74V66.41c0-2.38,0.79-4.75,2.77-6.74c1.58-1.58,3.96-2.77,6.74-2.77
		h38.04c1.19-5.55,3.96-10.7,7.92-14.66s8.72-6.74,14.26-7.53L87.01,8.95L90.18,7.37z M120.29,44.61
		c-3.96-3.96-9.51-6.74-15.45-6.74c-5.55,0-11.09,2.77-15.06,6.74c-3.17,3.17-5.55,7.53-6.74,12.28h43.98
		C125.84,52.14,123.46,47.78,120.29,44.61z M71.16,227.67l8.32-19.81h-5.55L71.16,227.67z M180.52,206.67l8.32,20.21l-2.77-20.21
		H180.52z M98.1,224.1l5.94-15.06h-3.96L98.1,224.1z M198.75,197.56v-8.72H61.25v8.72H198.75z M218.56,65.61H41.44
		c-0.4,0-0.4,0.4-0.79,0.4v0.4v110.55v0.4l0,0c0.4,0.4,0.4,0.4,0.79,0.4h177.11c0,0,0.4,0,0.4-0.4c0.4,0,0.4-0.4,0.4-0.4V66.41
		c0,0,0-0.4-0.4-0.4l0,0L218.56,65.61z"></path>
	<circle class="st0" cx="202.71" cy="101.67" r="8.32"></circle>
	<polygon points="211.03,117.12 211.03,150.01 207.46,150.01 207.46,117.12 	"></polygon>
	<polygon points="198.35,117.12 198.35,150.01 194.39,150.01 194.39,117.12 	"></polygon>
	<path class="st1" d="M179.8,171.7H52.06c-2.7,0-4.88-2.19-4.88-4.88V76.96c0-2.7,2.19-4.88,4.88-4.88H179.8
		c2.7,0,4.88,2.19,4.88,4.88v89.85C184.68,169.51,182.49,171.7,179.8,171.7z"></path>
	<g>
		<g>
			<path d="M60.62,112.93v-27h14.21c1.99,0,3.65,0.34,4.96,1.02c1.31,0.68,2.3,1.65,2.95,2.91c0.66,1.26,0.98,2.74,0.98,4.45
				c0,1.76-0.39,3.31-1.18,4.66c-0.79,1.35-1.94,2.37-3.46,3.05l5.59,10.9h-5.59l-4.96-10.04h-8.38v10.04H60.62z M65.74,98.61h8.7
				c1.31,0,2.32-0.38,3.03-1.14c0.71-0.76,1.06-1.81,1.06-3.15c0-0.87-0.16-1.59-0.47-2.18c-0.31-0.59-0.77-1.04-1.38-1.36
				c-0.6-0.31-1.35-0.47-2.24-0.47h-8.7V98.61z"></path>
			<path d="M88.84,112.93v-27h14.21c1.99,0,3.65,0.34,4.96,1.02c1.31,0.68,2.3,1.65,2.95,2.91c0.66,1.26,0.98,2.74,0.98,4.45
				c0,1.76-0.39,3.31-1.18,4.66c-0.79,1.35-1.94,2.37-3.46,3.05l5.59,10.9h-5.59l-4.96-10.04h-8.38v10.04H88.84z M93.96,98.61h8.7
				c1.31,0,2.32-0.38,3.03-1.14c0.71-0.76,1.06-1.81,1.06-3.15c0-0.87-0.16-1.59-0.47-2.18c-0.31-0.59-0.77-1.04-1.38-1.36
				c-0.6-0.31-1.35-0.47-2.24-0.47h-8.7V98.61z"></path>
			<path d="M129.15,113.4c-4.17,0-7.41-1.12-9.72-3.36c-2.31-2.24-3.46-5.78-3.46-10.61c0-3.17,0.54-5.79,1.63-7.85
				c1.09-2.06,2.66-3.59,4.72-4.61c2.06-1.01,4.53-1.52,7.42-1.52c1.73,0,3.36,0.2,4.88,0.59c1.52,0.39,2.87,0.99,4.03,1.79
				s2.08,1.8,2.74,3.01c0.66,1.21,0.98,2.64,0.98,4.29h-5.27c0-0.87-0.19-1.63-0.57-2.3c-0.38-0.67-0.91-1.23-1.57-1.69
				c-0.67-0.46-1.44-0.8-2.3-1.02c-0.87-0.22-1.78-0.33-2.75-0.33c-1.44,0-2.71,0.19-3.8,0.57c-1.09,0.38-1.99,0.96-2.72,1.73
				c-0.72,0.77-1.26,1.74-1.61,2.89c-0.35,1.16-0.53,2.51-0.53,4.05v0.83c0,2.13,0.3,3.87,0.91,5.24c0.6,1.36,1.52,2.37,2.74,3.01
				c1.22,0.64,2.74,0.96,4.55,0.96c1.55,0,2.91-0.24,4.07-0.71c1.17-0.47,2.09-1.16,2.76-2.07c0.67-0.91,1-2.01,1-3.33v-0.28h-8.62
				v-4.25h13.74v14.48h-3.66l-0.43-2.99c-0.79,0.79-1.63,1.44-2.52,1.95c-0.89,0.51-1.88,0.89-2.95,1.14
				C131.73,113.28,130.51,113.4,129.15,113.4z"></path>
			<path d="M160.51,113.4c-2.81,0-5.23-0.5-7.28-1.52c-2.05-1.01-3.61-2.55-4.7-4.62c-1.09-2.07-1.63-4.68-1.63-7.83
				c0-3.17,0.54-5.79,1.63-7.85c1.09-2.06,2.66-3.59,4.7-4.61c2.05-1.01,4.47-1.52,7.28-1.52c2.83,0,5.27,0.51,7.3,1.52
				c2.03,1.01,3.59,2.55,4.68,4.61c1.09,2.06,1.63,4.68,1.63,7.85c0,3.15-0.55,5.76-1.63,7.83c-1.09,2.07-2.65,3.62-4.68,4.62
				C165.78,112.9,163.35,113.4,160.51,113.4z M160.51,109.08c1.36,0,2.56-0.2,3.6-0.59s1.91-0.98,2.62-1.75
				c0.71-0.77,1.25-1.73,1.61-2.87c0.37-1.14,0.55-2.46,0.55-3.96v-0.87c0-1.52-0.18-2.86-0.55-4.01c-0.37-1.15-0.91-2.12-1.61-2.89
				c-0.71-0.77-1.58-1.36-2.62-1.75c-1.04-0.39-2.24-0.59-3.6-0.59s-2.56,0.2-3.6,0.59c-1.04,0.39-1.91,0.98-2.62,1.75
				c-0.71,0.77-1.24,1.74-1.59,2.89c-0.35,1.16-0.53,2.49-0.53,4.01v0.87c0,1.5,0.18,2.81,0.53,3.96c0.35,1.14,0.89,2.1,1.59,2.87
				c0.71,0.77,1.58,1.36,2.62,1.75S159.15,109.08,160.51,109.08z"></path>
		</g>
		<g>
			<path d="M73.27,156.26c-2.66,0-4.95-0.43-6.87-1.28c-1.92-0.86-3.39-2.16-4.41-3.92c-1.02-1.76-1.53-3.95-1.53-6.58v-19.14h5.76
				v18.96c0,2.33,0.61,4.1,1.84,5.29c1.23,1.2,2.96,1.79,5.21,1.79c2.24,0,3.99-0.6,5.25-1.79c1.25-1.2,1.88-2.96,1.88-5.29v-18.96
				h5.76v19.14c0,2.63-0.52,4.82-1.55,6.58c-1.03,1.76-2.51,3.06-4.43,3.92C78.26,155.83,75.95,156.26,73.27,156.26z"></path>
			<path d="M89.83,155.73l10.94-15.95l-9.92-14.44h7.04l6.73,10.14h0.22l6.73-10.14h6.6l-9.92,14.4l10.99,15.99h-7l-7.8-11.74h-0.27
				l-7.71,11.74H89.83z"></path>
			<path d="M119.73,157.9l9.3-34.73h3.9l-9.3,34.73H119.73z"></path>
			<path d="M148.93,156.26c-2.66,0-4.95-0.43-6.87-1.28c-1.92-0.86-3.39-2.16-4.41-3.92c-1.02-1.76-1.53-3.95-1.53-6.58v-19.14h5.76
				v18.96c0,2.33,0.61,4.1,1.84,5.29c1.23,1.2,2.96,1.79,5.21,1.79c2.24,0,3.99-0.6,5.25-1.79c1.25-1.2,1.88-2.96,1.88-5.29v-18.96
				h5.76v19.14c0,2.63-0.52,4.82-1.55,6.58c-1.03,1.76-2.51,3.06-4.43,3.92C153.92,155.83,151.61,156.26,148.93,156.26z"></path>
			<path d="M168.37,155.73v-30.39h5.76v30.39H168.37z"></path>
		</g>
	</g>
</g>
</svg></svg></g></g><defs><clipPath id="SvgjsClipPath1443"><rect width="1000" height="1000" x="0" y="0" rx="150" ry="150"></rect></clipPath></defs></svg>